<?xml version="1.0" encoding="UTF-8"?>
<svg width="28px" height="39px" viewBox="0 0 28 39" version="1.1" xmlns="http://www.w3.org/2000/svg" xmlns:xlink="http://www.w3.org/1999/xlink">
    <!-- Generator: Sketch 45.1 (43504) - http://www.bohemiancoding.com/sketch -->
    <title>Foursquare</title>
    <desc></desc>
    <defs>
        <linearGradient x1="-10.3528117%" y1="6.3702029%" x2="105.488877%" y2="77.4341542%" id="pride">
            <stop stop-color="#F00000" offset="0%"></stop>
            <stop stop-color="#F00000" offset="18.2620226%"></stop>
            <stop stop-color="#FF8000" offset="18.2620226%"></stop>
            <stop stop-color="#FF8000" offset="32.101429%"></stop>
            <stop stop-color="#FFFF00" offset="32.101429%"></stop>
            <stop stop-color="#FFFF00" offset="46.8012596%"></stop>
            <stop stop-color="#007940" offset="46.8012596%"></stop>
            <stop stop-color="#007940" offset="57.2505356%"></stop>
            <stop stop-color="#4076FF" offset="57.2505356%"></stop>
            <stop stop-color="#4076FF" offset="70.0394248%"></stop>
            <stop stop-color="#A000C0" offset="70.0394248%"></stop>
            <stop stop-color="#A000C0" offset="100%"></stop>
        </linearGradient>
    </defs>
    <g id="Page-1" stroke="none" stroke-width="1" fill="none" fill-rule="evenodd">
        <g id="logo" transform="translate(-149.000000, -143.000000)" fill-rule="nonzero" fill="url(#pride)">
            <path d="M175.449702,144.480925 C174.645945,143.539773 173.475044,143 172.237307,143 L153.22456,143 C150.895109,143 149,144.895109 149,147.22456 L149,179.464655 C149,180.267323 149.496184,180.986445 150.246636,181.271315 C150.470119,181.356132 150.702138,181.397178 150.932068,181.397178 C151.474202,181.397178 152.004077,181.1687 152.378123,180.74698 L162.575059,169.251918 L169.418028,169.251918 C171.50874,169.251918 173.263548,167.753194 173.590554,165.68818 L176.410015,147.885383 C176.603531,146.662902 176.25355,145.422078 175.449702,144.480925 Z M170.725234,153.783749 L161.687848,153.783749 C160.604487,153.783749 159.691668,154.670324 159.712191,155.753594 C159.732078,156.803627 160.589504,157.648702 161.644259,157.648702 L169.818317,157.648702 C170.412848,157.648702 170.866806,158.179849 170.77418,158.767115 L169.858636,164.573763 C169.784445,165.04443 169.378707,165.39096 168.902228,165.390779 L161.705828,165.387146 C161.15316,165.387146 160.626917,165.623796 160.260227,166.037253 L152.864772,174.374224 L152.864772,147.22456 C152.864772,147.025959 153.025778,146.864863 153.22447,146.864863 L171.44817,146.864863 C172.037889,146.864863 172.490575,147.387927 172.40585,147.971561 L171.682823,152.954928 C171.613898,153.430771 171.206071,153.783749 170.725234,153.783749 Z" id="Shape"></path>
        </g>
    </g>
</svg>
