<?xml version="1.0" encoding="UTF-8"?>
<svg width="25px" height="25px" viewBox="0 0 25 25" version="1.1" xmlns="http://www.w3.org/2000/svg" xmlns:xlink="http://www.w3.org/1999/xlink">
    <!-- Generator: Sketch 45.1 (43504) - http://www.bohemiancoding.com/sketch -->
    <title>Github</title>
    <desc></desc>
    <defs></defs>
    <g id="Page-1" stroke="none" stroke-width="1" fill="none" fill-rule="evenodd">
        <g id="Mobile" transform="translate(-186.000000, -657.000000)" fill="#161514">
            <g id="Group" transform="translate(176.000000, 647.000000)">
                <path d="M22.498849,10 C15.5971638,10 10,15.5963965 10,22.5003837 C10,28.023113 13.5812947,32.7078793 18.5484515,34.3607846 C19.1738543,34.4758894 19.4017619,34.0899045 19.4017619,33.7584027 C19.4017619,33.4621996 19.3910188,32.67565 19.3848798,31.6328003 C15.9079468,32.3878879 15.1743454,29.9568741 15.1743454,29.9568741 C14.6057276,28.5126922 13.7861813,28.1282421 13.7861813,28.1282421 C12.6512477,27.353203 13.8721262,27.3685503 13.8721262,27.3685503 C15.1267688,27.4567973 15.7867031,28.6569569 15.7867031,28.6569569 C16.9016851,30.5669296 18.7126677,30.0151938 19.4247828,29.6952024 C19.5383529,28.8879339 19.8614138,28.3369655 20.2182387,28.0246478 C17.4426778,27.7092606 14.5243869,26.6364836 14.5243869,21.8465883 C14.5243869,20.4822125 15.011664,19.3656957 15.8112588,18.4924338 C15.6823414,18.1762792 15.2533841,16.9047546 15.9340373,15.1843212 C15.9340373,15.1843212 16.9830259,14.8482151 19.3710673,16.4658215 C20.367875,16.1880352 21.4375825,16.0499095 22.5003837,16.0445379 C23.5624175,16.0499095 24.6313576,16.1880352 25.6297001,16.4658215 C28.0162068,14.8482151 29.0636606,15.1843212 29.0636606,15.1843212 C29.7458486,16.9047546 29.3168912,18.1762792 29.1887412,18.4924338 C29.9898708,19.3656957 30.473311,20.4822125 30.473311,21.8465883 C30.473311,26.6487615 27.5504159,27.7054237 24.7664139,28.014672 C25.2145554,28.4006569 25.6143528,29.1634182 25.6143528,30.3298137 C25.6143528,32.0003683 25.5990055,33.3486295 25.5990055,33.7584027 C25.5990055,34.092974 25.8246109,34.4820283 26.4584548,34.3600172 C31.4217748,32.7032751 35,28.0215783 35,22.5003837 C35,15.5963965 29.4028362,10 22.498849,10" id="Fill-3"></path>
            </g>
        </g>
    </g>
</svg>
