<?xml version="1.0" encoding="UTF-8"?>
<svg width="25px" height="25px" viewBox="0 0 25 25" version="1.1" xmlns="http://www.w3.org/2000/svg" xmlns:xlink="http://www.w3.org/1999/xlink">
    <!-- Generator: Sketch 45.1 (43504) - http://www.bohemiancoding.com/sketch -->
    <title>LinkedIn</title>
    <desc></desc>
    <defs></defs>
    <g id="Page-1" stroke="none" stroke-width="1" fill="none" fill-rule="evenodd">
        <g id="Mobile-Copy" transform="translate(-263.000000, -656.000000)" fill="#FFFFFF">
            <g id="Group-2" transform="translate(253.000000, 646.000000)">
                <g id="In-2C-CMYK-0p5in-R" transform="translate(10.000000, 10.000000)">
                    <path d="M23.15,0 C24.1694444,0 24.9993056,0.806944444 24.9993056,1.80277778 L24.9993056,23.1958333 C24.9993056,24.1916667 24.1694444,25 23.15,25 L1.84375,25 C0.826388889,25 0,24.1916667 0,23.1958333 L0,1.80277778 C0,0.806944444 0.826388889,0 1.84375,0 L23.15,0 Z M5.56111111,3.44166667 C4.37013889,3.44166667 3.40972222,4.40486111 3.40972222,5.59166667 C3.40972222,6.77916667 4.37013889,7.74236111 5.56111111,7.74236111 C6.74722222,7.74236111 7.70972222,6.77916667 7.70972222,5.59166667 C7.70972222,4.40486111 6.74722222,3.44166667 5.56111111,3.44166667 Z M3.70416667,21.3027778 L7.41597222,21.3027778 L7.41597222,9.37222222 L3.70416667,9.37222222 L3.70416667,21.3027778 Z M9.74166667,9.37222222 L9.74166667,21.3027778 L13.4451389,21.3027778 L13.4451389,15.4020833 C13.4451389,13.8451389 13.7395833,12.3375 15.6694444,12.3375 C17.5722222,12.3375 17.5958333,14.1173611 17.5958333,15.5006944 L17.5958333,21.3027778 L21.3034722,21.3027778 L21.3034722,14.7597222 C21.3034722,11.5465278 20.6097222,9.07638889 16.8548611,9.07638889 C15.0513889,9.07638889 13.8416667,10.0652778 13.3472222,11.0034722 L13.2958333,11.0034722 L13.2958333,9.37222222 L9.74166667,9.37222222 Z" id="Fill-4"></path>
                </g>
            </g>
        </g>
    </g>
</svg>
