<?xml version="1.0" encoding="UTF-8"?>
<svg width="25px" height="25px" viewBox="0 0 25 25" version="1.1" xmlns="http://www.w3.org/2000/svg" xmlns:xlink="http://www.w3.org/1999/xlink">
    <!-- Generator: Sketch 46.2 (44496) - http://www.bohemiancoding.com/sketch -->
    <title>Medium</title>
    <desc></desc>
    <defs></defs>
    <g id="Page-1" stroke="none" stroke-width="1" fill="none" fill-rule="evenodd">
        <g id="Artboard-Copy" transform="translate(-288.000000, -216.000000)" fill-rule="nonzero" fill="#FFFFFF">
            <g id="Group-3-Copy-3" transform="translate(278.000000, 206.000000)">
                <path d="M10,10 L35,10 L35,35 L10,35 L10,10 Z M15.6800498,18.1999695 L15.6800498,25.4168572 C15.725381,25.6771972 15.6416124,25.9431363 15.454404,26.1332114 L13.7037037,28.213687 L13.7037037,28.4880354 L18.6679116,28.4880354 L18.6679116,28.213687 L16.9172113,26.1332114 C16.7286299,25.9434509 16.6396742,25.6792643 16.6760037,25.4168572 L16.6760037,19.1754306 L21.0333022,28.4880354 L21.5390601,28.4880354 L25.2816682,19.1754306 L25.2816682,26.5980796 C25.2816682,26.7962201 25.2816682,26.834324 25.1493931,26.9638775 L23.8032991,28.2441701 L23.8032991,28.5185185 L30.3392468,28.5185185 L30.3392468,28.2441701 L29.0398382,26.9943606 C28.9251317,26.9086995 28.8682314,26.7679095 28.8920013,26.6285628 L28.8920013,17.4455114 C28.8682314,17.3061646 28.9251317,17.1653745 29.0398382,17.0797135 L30.3703704,15.829904 L30.3703704,15.5555556 L25.7640835,15.5555556 L22.4805478,23.5802469 L18.7457205,15.5555556 L13.9137877,15.5555556 L13.9137877,15.829904 L15.4699658,17.6665142 C15.6227368,17.8014177 15.7007569,17.9995299 15.6800498,18.1999695 Z" id="Medium"></path>
            </g>
        </g>
    </g>
</svg>
