<?xml version="1.0" encoding="UTF-8"?>
<svg width="25px" height="20px" viewBox="0 0 25 20" version="1.1" xmlns="http://www.w3.org/2000/svg" xmlns:xlink="http://www.w3.org/1999/xlink">
    <!-- Generator: Sketch 46.2 (44496) - http://www.bohemiancoding.com/sketch -->
    <title>Medium</title>
    <desc></desc>
    <defs></defs>
    <g id="Page-1" stroke="none" stroke-width="1" fill="none" fill-rule="evenodd">
        <g id="Artboard-Copy" transform="translate(-341.000000, -219.000000)" fill="#FFFFFF">
            <g id="Group-3-Copy-5" transform="translate(331.000000, 206.000000)">
                <path d="M12.9645191,16.9666209 C12.9955797,16.6659615 12.8785496,16.3687932 12.6493931,16.166438 L10.315126,13.4115226 L10.315126,13 L17.5630252,13 L23.1652661,25.037037 L28.0905697,13 L35,13 L35,13.4115226 L33.0042017,15.2862369 C32.832142,15.4147285 32.7467916,15.6259136 32.7824464,15.8349337 L32.7824464,29.6095108 C32.7467916,29.8185309 32.832142,30.0297159 33.0042017,30.1582076 L34.9533147,32.0329218 L34.9533147,32.4444444 L25.1493931,32.4444444 L25.1493931,32.0329218 L27.1685342,30.1124829 C27.3669468,29.9181527 27.3669468,29.8609968 27.3669468,29.5637861 L27.3669468,18.4298125 L21.7530345,32.3987197 L20.9943978,32.3987197 L14.45845,18.4298125 L14.45845,27.7919524 C14.4039557,28.1855631 14.5373893,28.5818429 14.8202614,28.8664838 L17.4463119,31.9871971 L17.4463119,32.3987197 L10,32.3987197 L10,31.9871971 L12.6260504,28.8664838 C12.906863,28.581371 13.032516,28.1824625 12.9645191,27.7919524 L12.9645191,16.9666209 Z" id="Shape-path"></path>
            </g>
        </g>
    </g>
</svg>
