<?xml version="1.0" encoding="UTF-8"?>
<svg width="25px" height="22px" viewBox="0 0 25 22" version="1.1" xmlns="http://www.w3.org/2000/svg" xmlns:xlink="http://www.w3.org/1999/xlink">
    <!-- Generator: Sketch 45.1 (43504) - http://www.bohemiancoding.com/sketch -->
    <title>Medium</title>
    <desc></desc>
    <defs></defs>
    <g id="Page-1" stroke="none" stroke-width="1" fill="none" fill-rule="evenodd">
        <g id="Mobile" transform="translate(-109.000000, -659.000000)" fill="#1B1A19">
            <g id="Group-3-Copy" transform="translate(99.000000, 647.000000)">
                <g id="Group-4" transform="translate(10.000000, 12.000000)">
                    <path d="M24.8414286,3.85880952 C24.8366667,3.855 24.8328571,3.85 24.8269048,3.84714286 L24.8183333,3.84285714 L17.3016667,0.0845238095 C17.2509524,0.059047619 17.197619,0.0419047619 17.1435714,0.0280952381 C17.0757143,0.0107142857 17.0064286,0 16.9369048,0 C16.6490476,0 16.362619,0.14452381 16.207381,0.396428571 L11.88,7.42880952 L17.3107143,16.2535714 L24.8645238,3.97880952 C24.8895238,3.93785714 24.877619,3.88738095 24.8414286,3.85880952" id="Fill-53"></path>
                    <polyline id="Fill-54" points="9.49642857 5.82690476 9.49642857 13.8319048 16.6116667 17.3895238 9.49642857 5.82690476"></polyline>
                    <path d="M17.6807143,17.9240476 L23.537619,20.852381 C24.2997619,21.2335714 24.917619,20.9666667 24.917619,20.2566667 L24.917619,6.16404762 L17.6807143,17.9240476" id="Fill-55"></path>
                    <path d="M8.26119048,3.8702381 L0.92,0.19952381 C0.787380952,0.133333333 0.661190476,0.101904762 0.546904762,0.101904762 C0.22547619,0.101904762 0,0.350714286 0,0.768095238 L0,16.6180952 C0,17.042381 0.31047619,17.5447619 0.69,17.7345238 L7.15595238,20.967381 C7.32166667,21.0502381 7.47952381,21.0895238 7.62214286,21.0895238 C8.02404762,21.0895238 8.30595238,20.7785714 8.30595238,20.2566667 L8.30595238,3.94238095 C8.30595238,3.91190476 8.28857143,3.88380952 8.26119048,3.8702381" id="Fill-56"></path>
                </g>
            </g>
        </g>
    </g>
</svg>
