<?xml version="1.0" encoding="UTF-8"?>
<svg width="25px" height="21px" viewBox="0 0 25 21" version="1.1" xmlns="http://www.w3.org/2000/svg" xmlns:xlink="http://www.w3.org/1999/xlink">
    <!-- Generator: Sketch 45.1 (43504) - http://www.bohemiancoding.com/sketch -->
    <title>Twitter</title>
    <desc></desc>
    <defs></defs>
    <g id="Page-1" stroke="none" stroke-width="1" fill="none" fill-rule="evenodd">
        <g id="Mobile-Copy" transform="translate(-32.000000, -658.000000)" fill-rule="nonzero" fill="#FFFFFF">
            <g id="Group-3" transform="translate(22.000000, 646.000000)">
                <path d="M17.862,32.313969 C27.296,32.313969 32.456,24.497969 32.456,17.719969 C32.456,17.497969 32.456,17.276969 32.441,17.056969 C33.4448314,16.3308799 34.3113555,15.4318484 35,14.401969 C34.0638791,14.8167708 33.0708293,15.0887977 32.054,15.208969 C33.124744,14.5679511 33.9261235,13.559741 34.309,12.371969 C33.3021575,12.9694243 32.2006461,13.3904811 31.052,13.616969 C29.4620828,11.9263633 26.9357194,11.5125816 24.8895493,12.607649 C22.8433792,13.7027163 21.786275,16.0342948 22.311,18.294969 C18.1868957,18.0882186 14.3444758,16.1402923 11.74,12.935969 C10.3786228,15.2796138 11.0739879,18.2778285 13.328,19.782969 C12.5117412,19.7587766 11.7132794,19.5385822 11,19.140969 C11,19.161969 11,19.183969 11,19.205969 C11.0006681,21.647562 12.7217515,23.7505042 15.115,24.233969 C14.3598696,24.4399091 13.5675806,24.4700133 12.799,24.321969 C13.4709479,26.4113919 15.3965746,27.8427529 17.591,27.883969 C15.774735,29.311401 13.5310595,30.0862968 11.221,30.083969 C10.8129036,30.0831856 10.4052041,30.0584765 10,30.009969 C12.3456359,31.5152456 15.0749134,32.313686 17.862,32.309969" id="Shape"></path>
            </g>
        </g>
    </g>
</svg>
